<svg id="图层_1" data-name="图层 1" xmlns="http://www.w3.org/2000/svg" viewBox="0 0 536.88 668.22">
    <path id="doodle" class="cls-1" fill="none" stroke="#00583b" stroke-miterlimit="10" stroke-width="8"
          d="M474.46,82.33a9.53,9.53,0,0,0-12.89-8.42Q322.7,126.48,295.3,221.1q-25.38,87.45,49.88,173.64a102.93,102.93,0,0,1,24.72,56.72L377,518a12.08,12.08,0,0,1-20.28,10.1h0a11.09,11.09,0,0,1-3.4-9.41c7.1-60-20.52-107.61-86.33-132.84-45.72-20.57-93.36-25.14-114.13-23.18a11.74,11.74,0,0,0-10.43,14.06c19,91.8,51.34,152.48,104.17,172.73,42.41,16.25,74.28,14.9,90.47,2.31,9-7,22.4-6,29.71,2.81q10.08,12.18,12,26.42c3.3,24.8,5.1,43.3,2.2,63.9-1.77,12.11-7.21,39.3-16.47,69.49a13.84,13.84,0,0,0,8.27,17l4,1.53a9.31,9.31,0,0,0,12.53-7.27c9.28-59.68,13-107.29,11.1-131Q398.92,576,397.6,565a64.33,64.33,0,0,1,16.23-51.4c.51-.56,1-1.11,1.57-1.65,1.64-1.65,3.19-3.17,4.65-4.54a23.4,23.4,0,0,1,26.33-4q68.39,33.57,126-27.9,57.15-61,96.87-100.94a6.29,6.29,0,0,0-2.55-10.41q-82.35-26.58-142.72-11c-63.9,16.4-85.91,59.37-90.71,71.77a155,155,0,0,0-9.93,36.54,70.21,70.21,0,0,1-17.56,37.82l-.8.87a1.54,1.54,0,0,0-.17.19,9.49,9.49,0,0,1-16.44-5.22l-4-33.47A97.66,97.66,0,0,1,406,387.82c21.89-26.56,43.55-49.28,57.42-64.93,29.2-33,35.08-104.78,23.78-154C480.7,140.85,475.83,107.26,474.46,82.33Z"
          transform="translate(-138.21 -69.29)"/>
</svg>