<svg id="图层_1" data-name="图层 1" xmlns="http://www.w3.org/2000/svg" xmlns:xlink="http://www.w3.org/1999/xlink"
     viewBox="0 0 802 803">
    <rect fill="#ffecda" width="802" height="802"/>
    <g class='peach' stroke="#ffffff" stroke-miterlimit="10" stroke-width="4" fill="#ffecda">
        <path class="orange"
              d="M204.75,529.22s9.5-26.8,33.6-33.5,43.2,2.7,43.2,2.7-6,29.2-23.4,37C226.65,549.42,204.75,529.22,204.75,529.22Z"/>
        <path class="orange"
              d="M431.45,650.57s-35.85-18-41-52.88,11.31-60,11.31-60,39.83,13.49,47.71,39.2C463.55,623.44,431.45,650.57,431.45,650.57Z"/>
        <path class="orange"
              d="M376.77,448.08s-24.9-77.76,18.59-135.23S499,243.79,499,243.79s37,77.42,10.61,125.47C461.87,456.18,376.77,448.08,376.77,448.08Z"/>
        <path class="orange"
              d="M425.35,577.62s19-109.2,107.5-150.9S701,408.92,701,408.92s-4.3,116.5-66.2,157.6C522.65,640.92,425.35,577.62,425.35,577.62Z"/>
        <path class="orange"
              d="M356.51,477.28s-98.61-50.57-112.2-147.39,32.8-165.8,32.8-165.8S387,202.66,408,274.1C445.87,403.17,356.51,477.28,356.51,477.28Z"/>
        <path class="orange"
              d="M303.9,486.71c-48,35.55-98.13,19.1-118.41-.52-22.72-22-36.41-45.22-36.42-68.1-12.87-27.94-8.23-56.32,22.41-82.52,45.33-38.77,111.33-36.08,150.19,9.3a63.76,63.76,0,0,1,15.69,42C353.73,419.53,339.17,460.63,303.9,486.71Z"/>
        <path class="orange"
              d="M549.25,295.32c2.23,26,6,73.55-35.85,100.12-10.93,8-26.13,13.91-47,16.48-38.2,4.7-81.1-29.8-81.1-69.9l96.31-27.15Z"/>
        <path class="orange"
              d="M472.24,374.82l99.46,73.11,57.45,41.29c-21.73,20.27-61.43,56.91-114.47,38.65-11.74-3.51-24.11-10.13-37-20.88q-3.45-2.72-7-5.74a62.34,62.34,0,0,1-11.14-12.65C435.82,455.72,439.09,400.8,472.24,374.82Z"/>
        <path class="orange"
              d="M380.65,360.42c28,0,50.49,14.42,64.5,36.84,27.89,17.35,43.85,53.42,41,94.06-4.8,67.8-56,99-88,102-46.59,4.39-83.63-5.89-100.73-37.33-22.41-12.79-35.77-36.08-35.77-72.57C261.65,415.52,312.75,360.42,380.65,360.42Z"/>
    </g>
</svg>